<svg width="40" height="40" viewBox="0 0 40 40" fill="none" xmlns="http://www.w3.org/2000/svg">
<path d="M34.9987 3.3335H9.9987C9.11464 3.3335 8.2668 3.68469 7.64167 4.30981C7.01655 4.93493 6.66536 5.78277 6.66536 6.66683V11.6668H3.33203V15.0002H6.66536V18.3335H3.33203V21.6668H6.66536V25.0002H3.33203V28.3335H6.66536V33.3335C6.66536 34.2176 7.01655 35.0654 7.64167 35.6905C8.2668 36.3156 9.11464 36.6668 9.9987 36.6668H34.9987C35.4407 36.6668 35.8647 36.4912 36.1772 36.1787C36.4898 35.8661 36.6654 35.4422 36.6654 35.0002V5.00016C36.6654 4.55814 36.4898 4.13421 36.1772 3.82165C35.8647 3.50909 35.4407 3.3335 34.9987 3.3335ZM21.6654 8.33183C24.412 8.33183 26.6654 10.5835 26.6654 13.3318C26.6614 14.6568 26.1334 15.9265 25.1966 16.8636C24.2599 17.8007 22.9904 18.3291 21.6654 18.3335C18.9204 18.3335 16.6654 16.0785 16.6654 13.3318C16.6654 10.5835 18.9204 8.33183 21.6654 8.33183ZM31.6654 30.0002H11.6654V28.7502C11.6654 25.0518 16.1737 21.2502 21.6654 21.2502C27.157 21.2502 31.6654 25.0518 31.6654 28.7502V30.0002Z" fill="currentColor"/>
</svg>
