<svg width="27" height="37" viewBox="0 0 27 37" fill="none" xmlns="http://www.w3.org/2000/svg">
<path fill-rule="evenodd" clip-rule="evenodd" d="M18.3333 0C18.9184 1.48641e-05 19.4932 0.154043 20 0.446603C20.5067 0.739164 20.9274 1.15995 21.22 1.66667H23.3333C24.2174 1.66667 25.0652 2.01786 25.6904 2.64298C26.3155 3.2681 26.6667 4.11595 26.6667 5V25C26.6667 27.2101 25.7887 29.3298 24.2259 30.8926C22.6631 32.4554 20.5435 33.3333 18.3333 33.3333H3.33333C2.44928 33.3333 1.60143 32.9821 0.976311 32.357C0.351189 31.7319 0 30.8841 0 30V5C0 4.11595 0.351189 3.2681 0.976311 2.64298C1.60143 2.01786 2.44928 1.66667 3.33333 1.66667H5.44667C5.73922 1.15995 6.16 0.739164 6.66671 0.446603C7.17343 0.154043 7.74823 1.48641e-05 8.33333 0H18.3333ZM18.04 12.2983L10.97 19.37L8.61167 17.0117C8.29733 16.7081 7.87633 16.5401 7.43933 16.5439C7.00234 16.5477 6.58432 16.723 6.2753 17.032C5.96629 17.341 5.79101 17.759 5.78721 18.196C5.78341 18.633 5.9514 19.054 6.255 19.3683L9.67167 22.7867C9.84192 22.957 10.0441 23.0921 10.2665 23.1843C10.489 23.2765 10.7275 23.3239 10.9683 23.3239C11.2092 23.3239 11.4476 23.2765 11.6701 23.1843C11.8926 23.0921 12.0947 22.957 12.265 22.7867L20.3983 14.655C20.5531 14.5002 20.6758 14.3163 20.7595 14.1141C20.8432 13.9118 20.8862 13.695 20.8862 13.4761C20.8861 13.2572 20.8429 13.0404 20.7591 12.8382C20.6752 12.636 20.5524 12.4522 20.3975 12.2975C20.2427 12.1428 20.0588 12.02 19.8566 11.9363C19.6543 11.8526 19.4375 11.8096 19.2186 11.8097C18.9997 11.8097 18.7829 11.8529 18.5807 11.9368C18.3785 12.0206 18.1947 12.1435 18.04 12.2983ZM17.5 3.33333H9.16667C8.97162 3.33327 8.78274 3.40162 8.6329 3.52648C8.48307 3.65135 8.38177 3.82481 8.34667 4.01667L8.33333 4.16667V5.83333C8.33327 6.02838 8.40162 6.21726 8.52648 6.3671C8.65135 6.51693 8.82481 6.61823 9.01667 6.65333L9.16667 6.66667H17.5C17.695 6.66673 17.8839 6.59838 18.0338 6.47352C18.1836 6.34865 18.2849 6.17519 18.32 5.98333L18.3333 5.83333V4.16667C18.3334 3.97162 18.265 3.78274 18.1402 3.6329C18.0153 3.48307 17.8419 3.38177 17.65 3.34667L17.5 3.33333Z" fill="currentColor"/>
</svg>
