<svg width="40" height="40" viewBox="0 0 40 40" fill="none" xmlns="http://www.w3.org/2000/svg">
<path fill-rule="evenodd" clip-rule="evenodd" d="M23.7487 4.16667C23.7487 4.05616 23.7048 3.95018 23.6267 3.87204C23.5485 3.7939 23.4425 3.75 23.332 3.75H11.6654C10.4498 3.75 9.284 4.23289 8.42446 5.09243C7.56492 5.95197 7.08203 7.11776 7.08203 8.33333V31.6667C7.08203 32.8822 7.56492 34.048 8.42446 34.9076C9.284 35.7671 10.4498 36.25 11.6654 36.25H28.332C29.5476 36.25 30.7134 35.7671 31.5729 34.9076C32.4325 34.048 32.9154 32.8822 32.9154 31.6667V15.245C32.9154 15.1345 32.8715 15.0285 32.7933 14.9504C32.7152 14.8722 32.6092 14.8283 32.4987 14.8283H24.9987C24.6672 14.8283 24.3492 14.6966 24.1148 14.4622C23.8804 14.2278 23.7487 13.9099 23.7487 13.5783V4.16667ZM24.9987 20.4167C25.3302 20.4167 25.6482 20.5484 25.8826 20.7828C26.117 21.0172 26.2487 21.3351 26.2487 21.6667C26.2487 21.9982 26.117 22.3161 25.8826 22.5505C25.6482 22.785 25.3302 22.9167 24.9987 22.9167H14.9987C14.6672 22.9167 14.3492 22.785 14.1148 22.5505C13.8804 22.3161 13.7487 21.9982 13.7487 21.6667C13.7487 21.3351 13.8804 21.0172 14.1148 20.7828C14.3492 20.5484 14.6672 20.4167 14.9987 20.4167H24.9987ZM24.9987 27.0833C25.3302 27.0833 25.6482 27.215 25.8826 27.4494C26.117 27.6839 26.2487 28.0018 26.2487 28.3333C26.2487 28.6649 26.117 28.9828 25.8826 29.2172C25.6482 29.4516 25.3302 29.5833 24.9987 29.5833H14.9987C14.6672 29.5833 14.3492 29.4516 14.1148 29.2172C13.8804 28.9828 13.7487 28.6649 13.7487 28.3333C13.7487 28.0018 13.8804 27.6839 14.1148 27.4494C14.3492 27.215 14.6672 27.0833 14.9987 27.0833H24.9987Z" fill="currentColor"/>
<path d="M26.25 4.70643C26.25 4.39976 26.5717 4.20477 26.81 4.39643C27.0122 4.55977 27.1917 4.74977 27.3483 4.96643L32.37 11.9614C32.4833 12.1214 32.36 12.3281 32.1633 12.3281H26.6667C26.5562 12.3281 26.4502 12.2842 26.372 12.2061C26.2939 12.1279 26.25 12.0219 26.25 11.9114V4.70643Z" fill="currentColor"/>
</svg>
