<svg width="40" height="40" viewBox="0 0 40 40" fill="none" xmlns="http://www.w3.org/2000/svg">
<g clip-path="url(#clip0_1391_11282)">
<path fill-rule="evenodd" clip-rule="evenodd" d="M8.84752 1.64864L25.7332 1.64006V8.22006L8.84752 8.22864C8.08485 8.22951 7.34193 7.9862 6.72752 7.53435L3.99038 5.51435C3.90057 5.44793 3.8276 5.36138 3.77731 5.26164C3.72702 5.1619 3.70083 5.05176 3.70083 4.94006C3.70083 4.82837 3.72702 4.71823 3.77731 4.61849C3.8276 4.51875 3.90057 4.4322 3.99038 4.36578L6.73038 2.34292C7.34286 1.89121 8.08363 1.64696 8.84467 1.64578L8.84752 1.64864ZM32.6847 8.21435L29.3047 8.21721V1.63721H32.6961C34.5075 1.66578 35.8932 3.27435 35.8932 4.92292C35.8932 6.57435 34.5075 8.18578 32.6961 8.21435H32.6847ZM15.739 14.8144C16.6961 15.1972 17.5104 15.6172 18.2161 16.0344V40.0001C17.1268 39.1827 15.9359 38.5104 14.6732 38.0001C12.5732 37.1601 9.54467 36.4658 4.92467 36.4658C4.54578 36.4658 4.18242 36.3153 3.91451 36.0474C3.6466 35.7794 3.49609 35.4161 3.49609 35.0372V14.5001C3.49609 14.1212 3.6466 13.7578 3.91451 13.4899C4.18242 13.222 4.54578 13.0715 4.92467 13.0715C9.83895 13.0715 13.239 13.8115 15.739 14.8144ZM25.3275 38.0001C23.7847 38.6201 22.7018 39.3315 21.7847 39.9972V16.0315C22.4904 15.6144 23.3075 15.1944 24.2647 14.8115C26.7647 13.8086 30.1647 13.0686 35.079 13.0686C35.4578 13.0686 35.8212 13.2191 36.0891 13.4871C36.357 13.755 36.5075 14.1183 36.5075 14.4972V35.0344C36.5075 35.4132 36.357 35.7766 36.0891 36.0445C35.8212 36.3124 35.4578 36.4629 35.079 36.4629C30.459 36.4629 27.4304 37.1572 25.3275 38.0001Z" fill="currentColor"/>
</g>
<defs>
<clipPath id="clip0_1391_11282">
<rect width="40" height="40" fill="black"/>
</clipPath>
</defs>
</svg>
