<svg width="40" height="40" viewBox="0 0 40 40" fill="none" xmlns="http://www.w3.org/2000/svg">
<path d="M8.33464 33.3333V30H11.0013L14.293 19.0417C14.5152 18.3194 14.9252 17.7433 15.523 17.3133C16.1207 16.8833 16.7802 16.6678 17.5013 16.6667H22.5013C23.2235 16.6667 23.8835 16.8822 24.4813 17.3133C25.0791 17.7444 25.4885 18.3206 25.7096 19.0417L29.0013 30H31.668V33.3333H8.33464ZM18.3346 13.3333V5H21.668V13.3333H18.3346ZM28.2513 17.4583L25.8763 15.0833L31.793 9.20833L34.1263 11.5417L28.2513 17.4583ZM30.0013 25V21.6667H38.3346V25H30.0013ZM11.7513 17.4583L5.8763 11.5417L8.20964 9.20833L14.1263 15.0833L11.7513 17.4583ZM1.66797 25V21.6667H10.0013V25H1.66797Z" fill="currentColor"/>
</svg>
