<svg width="40" height="40" viewBox="0 0 40 40" fill="none" xmlns="http://www.w3.org/2000/svg">
<mask id="mask0_1391_11309" style="mask-type:luminance" maskUnits="userSpaceOnUse" x="4" y="4" width="32" height="32">
<path d="M32.5 5H7.5C6.83696 5 6.20107 5.26339 5.73223 5.73223C5.26339 6.20107 5 6.83696 5 7.5V32.5C5 33.163 5.26339 33.7989 5.73223 34.2678C6.20107 34.7366 6.83696 35 7.5 35H32.5C33.163 35 33.7989 34.7366 34.2678 34.2678C34.7366 33.7989 35 33.163 35 32.5V7.5C35 6.83696 34.7366 6.20107 34.2678 5.73223C33.7989 5.26339 33.163 5 32.5 5Z" fill="white" stroke="white" stroke-width="2"/>
<path d="M22.75 10C21.2308 10 20 11.1959 20 12.67C20 15.3409 23.25 17.7684 25 18.3334C26.75 17.7684 30 15.3417 30 12.67C30 11.1959 28.7692 10 27.25 10C26.812 9.99822 26.3798 10.1001 25.9887 10.2974C25.5977 10.4947 25.2589 10.7817 25 11.135C24.7411 10.7817 24.4023 10.4947 24.0113 10.2974C23.6202 10.1001 23.188 9.99822 22.75 10Z" fill="black" stroke="black" stroke-width="2" stroke-linecap="round" stroke-linejoin="round"/>
</mask>
<g mask="url(#mask0_1391_11309)">
<path d="M0 0H40V40H0V0Z" fill="currentColor"/>
</g>
</svg>
