<svg width="40" height="40" viewBox="0 0 40 40" fill="none" xmlns="http://www.w3.org/2000/svg">
<path d="M19.9974 15.0002C23.2191 15.0002 25.8307 12.3885 25.8307 9.16683C25.8307 5.94517 23.2191 3.3335 19.9974 3.3335C16.7757 3.3335 14.1641 5.94517 14.1641 9.16683C14.1641 12.3885 16.7757 15.0002 19.9974 15.0002Z" fill="currentColor" stroke="currentColor" stroke-width="2" stroke-linecap="round" stroke-linejoin="round"/>
<path d="M3.33203 34.1668C3.33203 26.8027 10.0479 20.8335 18.332 20.8335" stroke="currentColor" stroke-width="2" stroke-linecap="round" stroke-linejoin="round"/>
<path d="M22.5 25.8335H34.1667V34.1668H22.5V25.8335Z" fill="currentColor" stroke="currentColor" stroke-width="2" stroke-linecap="round" stroke-linejoin="round"/>
<path d="M30.832 25.8335V23.3335C30.832 22.6705 30.5686 22.0346 30.0998 21.5657C29.631 21.0969 28.9951 20.8335 28.332 20.8335C27.669 20.8335 27.0331 21.0969 26.5643 21.5657C26.0954 22.0346 25.832 22.6705 25.832 23.3335V25.8335" stroke="currentColor" stroke-width="2" stroke-linecap="round" stroke-linejoin="round"/>
</svg>
