<svg width="34" height="22" viewBox="0 0 34 22" fill="none" xmlns="http://www.w3.org/2000/svg">
<path d="M8.33333 5H0V1.66667H8.33333V5ZM8.33333 10H0V13.3333H8.33333V10ZM30.9833 21.6667L24.6 15.2833C23.2667 16.15 21.7 16.6667 20 16.6667C15.4 16.6667 11.6667 12.9333 11.6667 8.33333C11.6667 3.73333 15.4 0 20 0C24.6 0 28.3333 3.73333 28.3333 8.33333C28.3333 10.0333 27.8167 11.6 26.95 12.9167L33.3333 19.3167L30.9833 21.6667ZM25 8.33333C25 5.58333 22.75 3.33333 20 3.33333C17.25 3.33333 15 5.58333 15 8.33333C15 11.0833 17.25 13.3333 20 13.3333C22.75 13.3333 25 11.0833 25 8.33333ZM0 21.6667H16.6667V18.3333H0V21.6667Z" fill="currentColor"/>
</svg>
