<svg width="40" height="40" viewBox="0 0 40 40" fill="none" xmlns="http://www.w3.org/2000/svg">
<path d="M11.6654 15H3.33203V11.6667H11.6654V15ZM11.6654 20H3.33203V23.3333H11.6654V20ZM34.3154 31.6667L27.932 25.2833C26.5987 26.15 25.032 26.6667 23.332 26.6667C18.732 26.6667 14.9987 22.9333 14.9987 18.3333C14.9987 13.7333 18.732 10 23.332 10C27.932 10 31.6654 13.7333 31.6654 18.3333C31.6654 20.0333 31.1487 21.6 30.282 22.9167L36.6654 29.3167L34.3154 31.6667ZM28.332 18.3333C28.332 15.5833 26.082 13.3333 23.332 13.3333C20.582 13.3333 18.332 15.5833 18.332 18.3333C18.332 21.0833 20.582 23.3333 23.332 23.3333C26.082 23.3333 28.332 21.0833 28.332 18.3333ZM3.33203 31.6667H19.9987V28.3333H3.33203V31.6667Z" fill="currentColor"/>
</svg>
