<svg width="40" height="40" viewBox="0 0 40 40" fill="none" xmlns="http://www.w3.org/2000/svg">
<path d="M23.6168 22.8502L25.9502 18.8168C26.1002 18.5668 26.0335 18.2502 25.8168 18.0668L23.3502 16.1335C23.4002 15.7668 23.4335 15.3835 23.4335 15.0002C23.4335 14.6168 23.4002 14.2335 23.3502 13.8502L25.8168 11.9168C26.0335 11.7335 26.1002 11.4168 25.9502 11.1668L23.6168 7.1335C23.4668 6.8835 23.1668 6.7835 22.9002 6.8835L20.0002 8.05016C19.4002 7.5835 18.7502 7.20016 18.0335 6.90016L17.6002 3.81683C17.5722 3.68203 17.4992 3.56076 17.3932 3.47292C17.2872 3.38509 17.1545 3.33592 17.0168 3.3335H12.3502C12.0668 3.3335 11.8168 3.55016 11.7668 3.8335L11.3335 6.91683C10.6335 7.21683 9.96684 7.60016 9.36684 8.06683L6.46684 6.90016C6.20017 6.80016 5.90017 6.90016 5.75017 7.15016L3.41683 11.1835C3.26683 11.4335 3.3335 11.7502 3.55017 11.9335L6.01683 13.8668C5.96684 14.2335 5.9335 14.6168 5.9335 15.0002C5.9335 15.3835 5.96684 15.7668 6.01683 16.1502L3.55017 18.0835C3.3335 18.2668 3.26683 18.5835 3.41683 18.8335L5.75017 22.8668C5.90017 23.1168 6.20017 23.2168 6.46684 23.1168L9.36684 21.9502C9.96684 22.4168 10.6168 22.8002 11.3335 23.1002L11.7668 26.1835C11.8168 26.4502 12.0668 26.6668 12.3502 26.6668H17.0168C17.3002 26.6668 17.5502 26.4502 17.6002 26.1668L18.0335 23.0835C18.7335 22.7835 19.4002 22.4002 20.0002 21.9335L22.9002 23.1002C23.1668 23.2002 23.4668 23.1002 23.6168 22.8502ZM14.6835 18.3335C12.8502 18.3335 11.3502 16.8335 11.3502 15.0002C11.3502 13.1668 12.8502 11.6668 14.6835 11.6668C16.5168 11.6668 18.0168 13.1668 18.0168 15.0002C18.0168 16.8335 16.5168 18.3335 14.6835 18.3335ZM36.5335 31.1168L34.9335 29.8835C34.9668 29.6502 35.0002 29.4002 35.0002 29.1502C35.0002 28.9002 34.9835 28.6502 34.9335 28.4168L36.5168 27.1835C36.6502 27.0668 36.7002 26.8668 36.6002 26.7002L35.1002 24.1168C35.0168 23.9502 34.8168 23.9002 34.6335 23.9502L32.7835 24.7002C32.4002 24.4002 31.9835 24.1502 31.5168 23.9668L31.2335 22.0002C31.2269 21.9111 31.1874 21.8276 31.1228 21.766C31.0581 21.7044 30.9728 21.6691 30.8835 21.6668H27.9002C27.7168 21.6668 27.5502 21.8002 27.5335 21.9835L27.2502 23.9502C26.8002 24.1502 26.3668 24.3835 25.9835 24.6835L24.1335 23.9335C24.0486 23.9016 23.9551 23.9008 23.8696 23.9313C23.7842 23.9618 23.7123 24.0216 23.6668 24.1002L22.1668 26.6835C22.0835 26.8502 22.1002 27.0502 22.2502 27.1668L23.8335 28.4002C23.766 28.8867 23.766 29.3803 23.8335 29.8668L22.2502 31.1002C22.1168 31.2168 22.0668 31.4168 22.1668 31.5835L23.6668 34.1668C23.7502 34.3335 23.9502 34.3835 24.1335 34.3335L25.9835 33.5835C26.3668 33.8835 26.7835 34.1335 27.2502 34.3168L27.5335 36.2835C27.5668 36.4668 27.7168 36.6002 27.9002 36.6002H30.8835C31.0668 36.6002 31.2335 36.4668 31.2502 36.2835L31.5335 34.3168C31.9835 34.1168 32.4168 33.8835 32.7835 33.5835L34.6502 34.3335C34.8168 34.4002 35.0168 34.3335 35.1168 34.1668L36.6168 31.5835C36.7168 31.4335 36.6668 31.2335 36.5335 31.1168ZM29.3835 31.3835C29.0879 31.3834 28.7953 31.3251 28.5222 31.2118C28.2492 31.0986 28.0011 30.9327 27.7922 30.7237C27.5832 30.5146 27.4175 30.2664 27.3045 29.9932C27.1915 29.7201 27.1334 29.4274 27.1335 29.1318C27.1336 28.8362 27.1919 28.5436 27.3052 28.2705C27.4184 27.9975 27.5843 27.7494 27.7933 27.5405C28.0024 27.3316 28.2506 27.1659 28.5237 27.0528C28.7969 26.9398 29.0896 26.8817 29.3852 26.8818C29.9821 26.8821 30.5546 27.1194 30.9765 27.5417C31.3985 27.9639 31.6354 28.5365 31.6352 29.1335C31.635 29.7305 31.3976 30.3029 30.9753 30.7248C30.5531 31.1468 29.9805 31.3837 29.3835 31.3835Z" fill="currentColor"/>
</svg>
