<svg width="40" height="40" viewBox="0 0 40 40" fill="none" xmlns="http://www.w3.org/2000/svg">
<path d="M18.2096 23.4167L27.668 14L25.293 11.625L18.2096 18.7083L14.668 15.1667L12.3346 17.5L18.2096 23.4167ZM1.66797 35V31.6667H38.3346V35H1.66797ZM6.66797 30C5.7513 30 4.96686 29.6739 4.31464 29.0217C3.66241 28.3694 3.33575 27.5844 3.33464 26.6667V8.33333C3.33464 7.41667 3.6613 6.63222 4.31464 5.98C4.96797 5.32778 5.75241 5.00111 6.66797 5H33.3346C34.2513 5 35.0363 5.32667 35.6896 5.98C36.343 6.63333 36.6691 7.41778 36.668 8.33333V26.6667C36.668 27.5833 36.3419 28.3683 35.6896 29.0217C35.0374 29.675 34.2524 30.0011 33.3346 30H6.66797Z" fill="currentColor"/>
</svg>
